<svg width="524" height="524" viewBox="0 0 524 524" fill="none" xmlns="http://www.w3.org/2000/svg">
    <path d="M112.922 175.016C128.118 145.672 144.362 116.066 169.252 94.8442C194.404 73.3602 228.202 60.7842 259.118 65.5002C290.034 70.4782 318.33 93.0102 353.438 108.468C388.546 123.926 430.728 132.048 445.138 156.414C459.548 180.78 445.924 221.39 435.706 256.236C425.488 290.82 418.676 319.64 411.078 355.796C403.48 391.69 395.096 435.182 370.206 461.12C345.316 487.058 303.658 495.966 269.074 483.914C234.228 471.862 206.456 439.112 177.374 415.532C148.03 391.952 117.114 377.542 98.7739 353.7C80.1719 329.596 74.1459 295.798 78.5999 264.358C82.7919 233.18 97.4639 204.36 112.922 175.016Z" fill="#E4F5FF" />
</svg>
    