<svg width="200" height="35" viewBox="0 0 200 35" fill="none" xmlns="http://www.w3.org/2000/svg">
    <path d="M44.4119 25.9036C43.3531 25.9036 42.318 25.7808 41.3067 25.5352C40.2954 25.2742 39.4894 24.9518 38.8889 24.5681L40.1215 21.9892C40.6904 22.3423 41.3778 22.634 42.1837 22.8642C42.9897 23.0791 43.7798 23.1866 44.5541 23.1866C46.1186 23.1866 46.9008 22.8105 46.9008 22.0583C46.9008 21.7053 46.6875 21.4521 46.2608 21.2985C45.8341 21.145 45.1782 21.0145 44.2934 20.9071C43.2504 20.7535 42.3891 20.577 41.7097 20.3775C41.0301 20.1779 40.4376 19.8249 39.9319 19.3184C39.442 18.8117 39.197 18.0903 39.197 17.1539C39.197 16.3711 39.4262 15.6803 39.8845 15.0816C40.3586 14.4676 41.038 13.9918 41.923 13.6541C42.8237 13.3164 43.8825 13.1475 45.0992 13.1475C46 13.1475 46.8929 13.2473 47.7778 13.4469C48.6786 13.631 49.4212 13.892 50.0059 14.2297L48.7734 16.7855C47.6514 16.1715 46.4267 15.8645 45.0992 15.8645C44.3091 15.8645 43.7166 15.9719 43.3215 16.1868C42.9265 16.4017 42.7289 16.678 42.7289 17.0157C42.7289 17.3995 42.9423 17.6682 43.3689 17.8217C43.7956 17.9751 44.4751 18.121 45.4075 18.2591C46.4504 18.428 47.3037 18.6122 47.9675 18.8117C48.6311 18.996 49.2079 19.3413 49.6978 19.8479C50.1877 20.3545 50.4326 21.0606 50.4326 21.9662C50.4326 22.7337 50.1956 23.4168 49.7215 24.0155C49.2475 24.6141 48.5521 25.0823 47.6356 25.4201C46.7348 25.7424 45.6602 25.9036 44.4119 25.9036Z" fill="#2A84EE" />
    <path d="M58.8772 25.9036C57.5182 25.9036 56.2936 25.6349 55.2032 25.0977C54.1287 24.5451 53.2832 23.7852 52.6669 22.8181C52.0665 21.8511 51.7661 20.7535 51.7661 19.5256C51.7661 18.2975 52.0665 17.2 52.6669 16.2329C53.2832 15.2658 54.1287 14.5137 55.2032 13.9764C56.2936 13.4238 57.5182 13.1475 58.8772 13.1475C60.2204 13.1475 61.3899 13.4238 62.3854 13.9764C63.3968 14.5137 64.1316 15.2888 64.5899 16.302L61.7217 17.7987C61.058 16.6627 60.102 16.0948 58.8536 16.0948C57.8896 16.0948 57.0916 16.4017 56.4594 17.0157C55.8273 17.6298 55.5113 18.4663 55.5113 19.5256C55.5113 20.5847 55.8273 21.4213 56.4594 22.0353C57.0916 22.6493 57.8896 22.9563 58.8536 22.9563C60.1178 22.9563 61.0738 22.3884 61.7217 21.2525L64.5899 22.7722C64.1316 23.7546 63.3968 24.5221 62.3854 25.0747C61.3899 25.6273 60.2204 25.9036 58.8772 25.9036Z" fill="#2A84EE" />
    <path d="M74.3771 13.1475C75.9573 13.1475 77.2294 13.608 78.1934 14.529C79.1731 15.4501 79.663 16.8162 79.663 18.6276V25.7194H75.9652V19.1802C75.9652 18.1977 75.744 17.4686 75.3015 16.9928C74.8591 16.5016 74.2191 16.2559 73.3815 16.2559C72.4492 16.2559 71.7064 16.5399 71.1534 17.1079C70.6003 17.6605 70.3238 18.4894 70.3238 19.5947V25.7194H66.626V8.63452H70.3238V14.6212C70.8136 14.1453 71.4062 13.7846 72.1015 13.5389C72.7969 13.278 73.5553 13.1475 74.3771 13.1475Z" fill="#2A84EE" />
    <path d="M89.222 25.9036C87.8788 25.9036 86.6699 25.6349 85.5954 25.0977C84.5366 24.5451 83.707 23.7852 83.1065 22.8181C82.506 21.8511 82.2058 20.7535 82.2058 19.5256C82.2058 18.2975 82.506 17.2 83.1065 16.2329C83.707 15.2658 84.5366 14.5137 85.5954 13.9764C86.6699 13.4238 87.8788 13.1475 89.222 13.1475C90.5653 13.1475 91.7663 13.4238 92.825 13.9764C93.8838 14.5137 94.7135 15.2658 95.3139 16.2329C95.9144 17.2 96.2147 18.2975 96.2147 19.5256C96.2147 20.7535 95.9144 21.8511 95.3139 22.8181C94.7135 23.7852 93.8838 24.5451 92.825 25.0977C91.7663 25.6349 90.5653 25.9036 89.222 25.9036ZM89.222 22.9563C90.1703 22.9563 90.9446 22.6493 91.545 22.0353C92.1614 21.406 92.4695 20.5694 92.4695 19.5256C92.4695 18.4818 92.1614 17.6529 91.545 17.0388C90.9446 16.4095 90.1703 16.0948 89.222 16.0948C88.2739 16.0948 87.4917 16.4095 86.8754 17.0388C86.2591 17.6529 85.9509 18.4818 85.9509 19.5256C85.9509 20.5694 86.2591 21.406 86.8754 22.0353C87.4917 22.6493 88.2739 22.9563 89.222 22.9563Z" fill="#2A84EE" />
    <path d="M104.755 25.9036C103.411 25.9036 102.203 25.6349 101.128 25.0977C100.069 24.5451 99.2395 23.7852 98.6391 22.8181C98.0386 21.8511 97.7383 20.7535 97.7383 19.5256C97.7383 18.2975 98.0386 17.2 98.6391 16.2329C99.2395 15.2658 100.069 14.5137 101.128 13.9764C102.203 13.4238 103.411 13.1475 104.755 13.1475C106.098 13.1475 107.299 13.4238 108.358 13.9764C109.416 14.5137 110.246 15.2658 110.847 16.2329C111.447 17.2 111.747 18.2975 111.747 19.5256C111.747 20.7535 111.447 21.8511 110.847 22.8181C110.246 23.7852 109.416 24.5451 108.358 25.0977C107.299 25.6349 106.098 25.9036 104.755 25.9036ZM104.755 22.9563C105.703 22.9563 106.477 22.6493 107.078 22.0353C107.694 21.406 108.002 20.5694 108.002 19.5256C108.002 18.4818 107.694 17.6529 107.078 17.0388C106.477 16.4095 105.703 16.0948 104.755 16.0948C103.807 16.0948 103.024 16.4095 102.408 17.0388C101.792 17.6529 101.484 18.4818 101.484 19.5256C101.484 20.5694 101.792 21.406 102.408 22.0353C103.024 22.6493 103.807 22.9563 104.755 22.9563Z" fill="#2A84EE" />
    <path d="M114.219 8.63452H117.917V25.7194H114.219V8.63452Z" fill="#2A84EE" />
    <path d="M129.099 13.1475C130.68 13.1475 131.952 13.608 132.916 14.529C133.896 15.4501 134.386 16.8162 134.386 18.6276V25.7194H130.688V19.1802C130.688 18.1977 130.467 17.4686 130.023 16.9928C129.581 16.5016 128.941 16.2559 128.103 16.2559C127.171 16.2559 126.429 16.5399 125.876 17.1079C125.322 17.6605 125.046 18.4894 125.046 19.5947V25.7194H121.349V8.63452H125.046V14.6212C125.536 14.1453 126.129 13.7846 126.823 13.5389C127.519 13.278 128.278 13.1475 129.099 13.1475Z" fill="#2A84EE" />
    <path d="M143.944 25.9036C142.601 25.9036 141.392 25.6349 140.318 25.0977C139.259 24.5451 138.429 23.7852 137.829 22.8181C137.228 21.8511 136.928 20.7535 136.928 19.5256C136.928 18.2975 137.228 17.2 137.829 16.2329C138.429 15.2658 139.259 14.5137 140.318 13.9764C141.392 13.4238 142.601 13.1475 143.944 13.1475C145.288 13.1475 146.489 13.4238 147.547 13.9764C148.605 14.5137 149.435 15.2658 150.037 16.2329C150.637 17.2 150.937 18.2975 150.937 19.5256C150.937 20.7535 150.637 21.8511 150.037 22.8181C149.435 23.7852 148.605 24.5451 147.547 25.0977C146.489 25.6349 145.288 25.9036 143.944 25.9036ZM143.944 22.9563C144.892 22.9563 145.667 22.6493 146.267 22.0353C146.883 21.406 147.191 20.5694 147.191 19.5256C147.191 18.4818 146.883 17.6529 146.267 17.0388C145.667 16.4095 144.892 16.0948 143.944 16.0948C142.996 16.0948 142.213 16.4095 141.598 17.0388C140.981 17.6529 140.673 18.4818 140.673 19.5256C140.673 20.5694 140.981 21.406 141.598 22.0353C142.213 22.6493 142.996 22.9563 143.944 22.9563Z" fill="#2A84EE" />
    <path d="M166.255 13.3318V25.7194H162.748V24.2458C162.258 24.7831 161.673 25.1976 160.993 25.4892C160.314 25.7655 159.579 25.9037 158.789 25.9037C157.114 25.9037 155.787 25.4355 154.807 24.4992C153.828 23.5627 153.338 22.1735 153.338 20.3315V13.3318H157.035V19.802C157.035 21.7975 157.897 22.7952 159.619 22.7952C160.503 22.7952 161.214 22.5189 161.752 21.9663C162.29 21.3984 162.558 20.5618 162.558 19.4566V13.3318H166.255Z" fill="#2A84EE" />
    <path d="M173.972 25.9036C172.913 25.9036 171.878 25.7808 170.867 25.5352C169.856 25.2742 169.05 24.9518 168.449 24.5681L169.681 21.9892C170.25 22.3423 170.938 22.634 171.743 22.8642C172.55 23.0791 173.34 23.1866 174.115 23.1866C175.679 23.1866 176.461 22.8105 176.461 22.0583C176.461 21.7053 176.248 21.4521 175.821 21.2985C175.395 21.145 174.739 21.0145 173.853 20.9071C172.81 20.7535 171.949 20.577 171.27 20.3775C170.59 20.1779 169.998 19.8249 169.492 19.3184C169.002 18.8117 168.757 18.0903 168.757 17.1539C168.757 16.3711 168.987 15.6803 169.445 15.0816C169.919 14.4676 170.598 13.9918 171.483 13.6541C172.385 13.3164 173.442 13.1475 174.659 13.1475C175.56 13.1475 176.453 13.2473 177.338 13.4469C178.239 13.631 178.981 13.892 179.566 14.2297L178.333 16.7855C177.211 16.1715 175.987 15.8645 174.659 15.8645C173.869 15.8645 173.277 15.9719 172.881 16.1868C172.487 16.4017 172.289 16.678 172.289 17.0157C172.289 17.3995 172.502 17.6682 172.929 17.8217C173.356 17.9751 174.036 18.121 174.968 18.2591C176.01 18.428 176.863 18.6122 177.528 18.8117C178.191 18.996 178.768 19.3413 179.258 19.8479C179.748 20.3545 179.992 21.0606 179.992 21.9662C179.992 22.7337 179.756 23.4168 179.281 24.0155C178.808 24.6141 178.112 25.0823 177.196 25.4201C176.295 25.7424 175.22 25.9036 173.972 25.9036Z" fill="#2A84EE" />
    <path d="M194.765 19.5716C194.765 19.6176 194.742 19.94 194.694 20.5386H185.048C185.221 21.3061 185.632 21.9125 186.28 22.3577C186.928 22.8028 187.734 23.0254 188.698 23.0254C189.361 23.0254 189.947 22.9333 190.452 22.7491C190.973 22.5495 191.455 22.2425 191.898 21.8281L193.865 23.9004C192.664 25.2358 190.91 25.9036 188.603 25.9036C187.165 25.9036 185.893 25.6349 184.787 25.0977C183.681 24.5451 182.828 23.7852 182.227 22.8181C181.627 21.8511 181.325 20.7535 181.325 19.5256C181.325 18.3129 181.619 17.223 182.203 16.2559C182.803 15.2735 183.618 14.5137 184.644 13.9764C185.688 13.4238 186.849 13.1475 188.129 13.1475C189.378 13.1475 190.508 13.4084 191.519 13.9304C192.53 14.4522 193.32 15.2044 193.889 16.1868C194.473 17.1539 194.765 18.2822 194.765 19.5716ZM188.152 15.8645C187.315 15.8645 186.612 16.0948 186.043 16.5553C185.474 17.0157 185.127 17.6451 185 18.4433H191.282C191.155 17.6605 190.808 17.0388 190.239 16.5783C189.67 16.1024 188.974 15.8645 188.152 15.8645Z" fill="#2A84EE" />
    <path d="M26.0917 9.9272C28.0075 13.2956 26.4677 17.686 22.6526 19.7334C18.8375 21.7808 14.1917 20.7099 12.2761 17.3416C10.9921 15.0841 10.1058 12.3368 12.6963 10.9465C14.9413 9.74171 15.2904 11.5445 17.3627 10.4324C19.4352 9.32021 18.2226 7.98081 20.4676 6.77599C22.7127 5.57116 24.8078 7.6697 26.0917 9.9272Z" fill="#FF6A66" />
    <path d="M22.6522 19.7331C26.4673 17.6858 28.007 13.2953 26.0912 9.92695C24.8073 7.66945 22.7122 5.57093 20.4671 6.77574C18.2221 7.98057 19.4346 9.31997 17.3623 10.4321L22.6522 19.7331Z" fill="#FF9892" />
    <path d="M18.7715 3.8538C19.2733 3.99027 20.0853 6.29258 19.4309 8.36667C18.7124 10.2007 17.6976 11.6193 16.4018 11.3648C15.1061 11.1102 14.4985 9.37274 15.0462 7.63683C15.7005 5.56275 18.2697 3.71733 18.7715 3.8538Z" fill="#6EEBB9" />
    <path fill-rule="evenodd" clip-rule="evenodd" d="M23.6849 24.3537C23.902 24.753 23.7455 25.2505 23.3209 25.4343C22.0515 25.9836 20.7062 26.3218 19.3403 26.444V29.4599H22.7078C23.1726 29.4599 23.5495 29.826 23.5495 30.2777V30.4821C23.5495 30.9337 23.1726 31.2998 22.7078 31.2998H13.553C13.0881 31.2998 12.7112 30.9337 12.7112 30.4821V30.2777C12.7112 29.826 13.0881 29.4599 13.553 29.4599H16.8149V26.4236C16.0202 26.3394 15.2301 26.1816 14.4553 25.9491C11.2555 24.9889 8.57961 22.8332 7.01608 19.9564C5.45256 17.0796 5.12955 13.7172 6.1181 10.6091C7.02355 7.76226 8.96137 5.34222 11.5564 3.78841C11.9522 3.55143 12.4633 3.70655 12.6803 4.10593L13.1913 5.046C13.4083 5.44537 13.2486 5.93719 12.8575 6.18135C10.9121 7.39581 9.4602 9.24281 8.7723 11.4056C8.00122 13.83 8.25317 16.4526 9.47272 18.6965C10.6923 20.9404 12.7795 22.6218 15.2753 23.3708C17.5019 24.0391 19.8909 23.9163 22.0205 23.0409C22.4488 22.865 22.9569 23.0142 23.174 23.4136L23.6849 24.3537Z" fill="#2A84EE" />
</svg>
    