<svg width="249" height="43" viewBox="0 0 249 43" fill="none" xmlns="http://www.w3.org/2000/svg">
    <path d="M55.2929 32.25C53.9747 32.25 52.686 32.0971 51.4269 31.7914C50.1678 31.4665 49.1643 31.0651 48.4167 30.5874L49.9513 27.3767C50.6595 27.8162 51.5154 28.1794 52.5188 28.466C53.5222 28.7336 54.5059 28.8674 55.47 28.8674C57.4177 28.8674 58.3916 28.3991 58.3916 27.4627C58.3916 27.0231 58.126 26.7079 57.5948 26.5167C57.0636 26.3256 56.247 26.1631 55.1453 26.0294C53.8467 25.8382 52.7745 25.6185 51.9286 25.37C51.0826 25.1216 50.3448 24.682 49.7153 24.0514C49.1054 23.4207 48.8003 22.5225 48.8003 21.3567C48.8003 20.382 49.0857 19.522 49.6562 18.7767C50.2465 18.0122 51.0924 17.4199 52.1942 16.9994C53.3156 16.5789 54.6337 16.3687 56.1486 16.3687C57.2701 16.3687 58.3817 16.4929 59.4834 16.7414C60.6049 16.9707 61.5295 17.2956 62.2574 17.716L60.7229 20.898C59.326 20.1336 57.8013 19.7514 56.1486 19.7514C55.1649 19.7514 54.4272 19.8851 53.9353 20.1527C53.4435 20.4202 53.1976 20.7642 53.1976 21.1847C53.1976 21.6625 53.4632 21.9969 53.9944 22.188C54.5256 22.3791 55.3716 22.5607 56.5324 22.7327C57.8308 22.9429 58.8932 23.1722 59.7196 23.4207C60.5458 23.65 61.2639 24.08 61.8738 24.7107C62.4837 25.3414 62.7886 26.2205 62.7886 27.348C62.7886 28.3036 62.4936 29.154 61.9033 29.8994C61.3132 30.6447 60.4475 31.2276 59.3064 31.648C58.1849 32.0494 56.8471 32.25 55.2929 32.25Z" fill="#2A84EE"/>
    <path d="M73.3021 32.25C71.6101 32.25 70.0854 31.9156 68.7279 31.2467C67.3901 30.5587 66.3375 29.6127 65.5702 28.4087C64.8227 27.2047 64.4487 25.8382 64.4487 24.3094C64.4487 22.7805 64.8227 21.414 65.5702 20.21C66.3375 19.006 67.3901 18.0696 68.7279 17.4007C70.0854 16.7127 71.6101 16.3687 73.3021 16.3687C74.9744 16.3687 76.4303 16.7127 77.6698 17.4007C78.9289 18.0696 79.8437 19.0347 80.4143 20.296L76.8434 22.1594C76.0171 20.7451 74.8269 20.038 73.2726 20.038C72.0724 20.038 71.0789 20.4202 70.2919 21.1847C69.505 21.9491 69.1115 22.9907 69.1115 24.3094C69.1115 25.628 69.505 26.6696 70.2919 27.434C71.0789 28.1985 72.0724 28.5807 73.2726 28.5807C74.8466 28.5807 76.0368 27.8736 76.8434 26.4594L80.4143 28.3514C79.8437 29.5745 78.9289 30.53 77.6698 31.218C76.4303 31.906 74.9744 32.25 73.3021 32.25Z" fill="#2A84EE"/>
    <path d="M92.5996 16.3686C94.567 16.3686 96.1508 16.942 97.3509 18.0886C98.5706 19.2354 99.1805 20.9362 99.1805 23.1914V32.0206H94.5768V23.8794C94.5768 22.6562 94.3014 21.7485 93.7505 21.156C93.1997 20.5445 92.4029 20.2386 91.3601 20.2386C90.1994 20.2386 89.2746 20.5922 88.5861 21.2994C87.8975 21.9874 87.5532 23.0194 87.5532 24.3954V32.0206H82.9495V10.75H87.5532V18.2034C88.1631 17.6109 88.9008 17.1618 89.7665 16.856C90.6322 16.5311 91.5765 16.3686 92.5996 16.3686Z" fill="#2A84EE"/>
    <path d="M111.082 32.25C109.409 32.25 107.904 31.9156 106.566 31.2467C105.248 30.5587 104.215 29.6127 103.468 28.4087C102.72 27.2047 102.346 25.8382 102.346 24.3094C102.346 22.7805 102.72 21.414 103.468 20.21C104.215 19.006 105.248 18.0696 106.566 17.4007C107.904 16.7127 109.409 16.3687 111.082 16.3687C112.754 16.3687 114.249 16.7127 115.567 17.4007C116.886 18.0696 117.918 19.006 118.666 20.21C119.414 21.414 119.788 22.7805 119.788 24.3094C119.788 25.8382 119.414 27.2047 118.666 28.4087C117.918 29.6127 116.886 30.5587 115.567 31.2467C114.249 31.9156 112.754 32.25 111.082 32.25ZM111.082 28.5807C112.262 28.5807 113.226 28.1985 113.974 27.434C114.741 26.6505 115.125 25.609 115.125 24.3094C115.125 23.0099 114.741 21.9779 113.974 21.2134C113.226 20.4299 112.262 20.038 111.082 20.038C109.901 20.038 108.927 20.4299 108.16 21.2134C107.393 21.9779 107.009 23.0099 107.009 24.3094C107.009 25.609 107.393 26.6505 108.16 27.434C108.927 28.1985 109.901 28.5807 111.082 28.5807Z" fill="#2A84EE"/>
    <path d="M130.419 32.25C128.747 32.25 127.242 31.9156 125.904 31.2467C124.586 30.5587 123.553 29.6127 122.806 28.4087C122.058 27.2047 121.684 25.8382 121.684 24.3094C121.684 22.7805 122.058 21.414 122.806 20.21C123.553 19.006 124.586 18.0696 125.904 17.4007C127.242 16.7127 128.747 16.3687 130.419 16.3687C132.092 16.3687 133.587 16.7127 134.905 17.4007C136.223 18.0696 137.256 19.006 138.004 20.21C138.751 21.414 139.125 22.7805 139.125 24.3094C139.125 25.8382 138.751 27.2047 138.004 28.4087C137.256 29.6127 136.223 30.5587 134.905 31.2467C133.587 31.9156 132.092 32.25 130.419 32.25ZM130.419 28.5807C131.6 28.5807 132.564 28.1985 133.312 27.434C134.079 26.6505 134.462 25.609 134.462 24.3094C134.462 23.0099 134.079 21.9779 133.312 21.2134C132.564 20.4299 131.6 20.038 130.419 20.038C129.239 20.038 128.265 20.4299 127.498 21.2134C126.73 21.9779 126.347 23.0099 126.347 24.3094C126.347 25.609 126.73 26.6505 127.498 27.434C128.265 28.1985 129.239 28.5807 130.419 28.5807Z" fill="#2A84EE"/>
    <path d="M142.202 10.75H146.806V32.0206H142.202V10.75Z" fill="#2A84EE"/>
    <path d="M160.728 16.3686C162.696 16.3686 164.28 16.942 165.48 18.0886C166.7 19.2354 167.31 20.9362 167.31 23.1914V32.0206H162.706V23.8794C162.706 22.6562 162.431 21.7485 161.879 21.156C161.328 20.5445 160.531 20.2386 159.488 20.2386C158.328 20.2386 157.404 20.5922 156.715 21.2994C156.026 21.9874 155.681 23.0194 155.681 24.3954V32.0206H151.079V10.75H155.681V18.2034C156.292 17.6109 157.03 17.1618 157.895 16.856C158.761 16.5311 159.706 16.3686 160.728 16.3686Z" fill="#2A84EE"/>
    <path d="M179.211 32.25C177.538 32.25 176.033 31.9156 174.695 31.2467C173.377 30.5587 172.344 29.6127 171.597 28.4087C170.848 27.2047 170.475 25.8382 170.475 24.3094C170.475 22.7805 170.848 21.414 171.597 20.21C172.344 19.006 173.377 18.0696 174.695 17.4007C176.033 16.7127 177.538 16.3687 179.211 16.3687C180.883 16.3687 182.378 16.7127 183.695 17.4007C185.014 18.0696 186.047 19.006 186.795 20.21C187.542 21.414 187.916 22.7805 187.916 24.3094C187.916 25.8382 187.542 27.2047 186.795 28.4087C186.047 29.6127 185.014 30.5587 183.695 31.2467C182.378 31.9156 180.883 32.25 179.211 32.25ZM179.211 28.5807C180.391 28.5807 181.355 28.1985 182.102 27.434C182.87 26.6505 183.253 25.609 183.253 24.3094C183.253 23.0099 182.87 21.9779 182.102 21.2134C181.355 20.4299 180.391 20.038 179.211 20.038C178.029 20.038 177.055 20.4299 176.289 21.2134C175.521 21.9779 175.138 23.0099 175.138 24.3094C175.138 25.609 175.521 26.6505 176.289 27.434C177.055 28.1985 178.029 28.5807 179.211 28.5807Z" fill="#2A84EE"/>
    <path d="M206.988 16.5981V32.0208H202.621V30.1861C202.011 30.8551 201.283 31.3711 200.437 31.7341C199.591 32.0781 198.676 32.2501 197.692 32.2501C195.607 32.2501 193.954 31.6672 192.734 30.5015C191.516 29.3357 190.906 27.6061 190.906 25.3128V16.5981H195.509V24.6535C195.509 27.138 196.581 28.3801 198.726 28.3801C199.827 28.3801 200.712 28.0361 201.381 27.3481C202.051 26.6411 202.384 25.5995 202.384 24.2235V16.5981H206.988Z" fill="#2A84EE"/>
    <path d="M216.595 32.25C215.277 32.25 213.988 32.0971 212.729 31.7914C211.47 31.4665 210.467 31.0651 209.719 30.5874L211.253 27.3767C211.961 27.8162 212.818 28.1794 213.82 28.466C214.825 28.7336 215.808 28.8674 216.772 28.8674C218.72 28.8674 219.694 28.3991 219.694 27.4627C219.694 27.0231 219.428 26.7079 218.897 26.5167C218.366 26.3256 217.55 26.1631 216.447 26.0294C215.148 25.8382 214.076 25.6185 213.231 25.37C212.385 25.1216 211.647 24.682 211.018 24.0514C210.408 23.4207 210.102 22.5225 210.102 21.3567C210.102 20.382 210.388 19.522 210.958 18.7767C211.549 18.0122 212.394 17.4199 213.497 16.9994C214.619 16.5789 215.936 16.3687 217.45 16.3687C218.572 16.3687 219.684 16.4929 220.786 16.7414C221.907 16.9707 222.831 17.2956 223.559 17.716L222.025 20.898C220.628 20.1336 219.103 19.7514 217.45 19.7514C216.467 19.7514 215.729 19.8851 215.237 20.1527C214.746 20.4202 214.5 20.7642 214.5 21.1847C214.5 21.6625 214.765 21.9969 215.296 22.188C215.828 22.3791 216.674 22.5607 217.835 22.7327C219.132 22.9429 220.195 23.1722 221.022 23.4207C221.848 23.65 222.566 24.08 223.176 24.7107C223.786 25.3414 224.09 26.2205 224.09 27.348C224.09 28.3036 223.796 29.154 223.205 29.8994C222.616 30.6447 221.75 31.2276 220.608 31.648C219.487 32.0494 218.149 32.25 216.595 32.25Z" fill="#2A84EE"/>
    <path d="M242.483 24.3667C242.483 24.424 242.454 24.8254 242.394 25.5707H230.384C230.6 26.5262 231.112 27.2811 231.918 27.8354C232.725 28.3896 233.729 28.6667 234.929 28.6667C235.754 28.6667 236.483 28.552 237.113 28.3227C237.762 28.0742 238.362 27.692 238.913 27.176L241.362 29.756C239.867 31.4187 237.683 32.25 234.811 32.25C233.021 32.25 231.437 31.9156 230.059 31.2467C228.683 30.5587 227.62 29.6127 226.872 28.4087C226.125 27.2047 225.75 25.8382 225.75 24.3094C225.75 22.7996 226.115 21.4427 226.843 20.2387C227.59 19.0156 228.604 18.0696 229.882 17.4007C231.181 16.7127 232.627 16.3687 234.22 16.3687C235.775 16.3687 237.182 16.6936 238.441 17.3434C239.7 17.9931 240.683 18.9296 241.392 20.1527C242.119 21.3567 242.483 22.7614 242.483 24.3667ZM234.249 19.7514C233.208 19.7514 232.332 20.038 231.624 20.6114C230.916 21.1847 230.483 21.9682 230.325 22.962H238.146C237.989 21.9874 237.556 21.2134 236.847 20.64C236.139 20.0476 235.273 19.7514 234.249 19.7514Z" fill="#2A84EE"/>
    <path d="M32.4842 12.3594C34.8694 16.5531 32.9523 22.0191 28.2025 24.5681C23.4527 27.1171 17.6687 25.7838 15.2837 21.5903C13.6852 18.7797 12.5818 15.3593 15.8069 13.6284C18.6019 12.1284 19.0366 14.373 21.6166 12.9883C24.1968 11.6037 22.6872 9.93613 25.4822 8.43612C28.2774 6.93611 30.8858 9.54879 32.4842 12.3594Z" fill="#FF6A66"/>
    <path d="M28.2019 24.5678C32.9517 22.0188 34.8686 16.5527 32.4834 12.3591C30.885 9.54855 28.2766 6.93588 25.4814 8.43587C22.6864 9.93588 24.196 11.6034 21.616 12.9881L28.2019 24.5678Z" fill="#FF9892"/>
    <path d="M23.3705 4.79793C23.9952 4.96783 25.0062 7.83421 24.1915 10.4165C23.2969 12.6998 22.0335 14.466 20.4203 14.1491C18.807 13.8321 18.0506 11.669 18.7325 9.5078C19.5471 6.92557 22.7458 4.62802 23.3705 4.79793Z" fill="#6EEBB9"/>
    <path fill-rule="evenodd" clip-rule="evenodd" d="M29.4877 30.3202C29.758 30.8174 29.5632 31.4367 29.0345 31.6656C27.4542 32.3494 25.7792 32.7705 24.0787 32.9227V36.6775H28.2712C28.8499 36.6775 29.3192 37.1333 29.3192 37.6957V37.9502C29.3192 38.5124 28.8499 38.9682 28.2712 38.9682H16.8735C16.2947 38.9682 15.8254 38.5124 15.8254 37.9502V37.6957C15.8254 37.1333 16.2947 36.6775 16.8735 36.6775H20.9345V32.8973C19.9452 32.7924 18.9615 32.596 17.9969 32.3065C14.0131 31.111 10.6816 28.4273 8.73503 24.8456C6.78845 21.264 6.3863 17.0778 7.61704 13.2082C8.74433 9.6639 11.1569 6.65096 14.3877 4.71645C14.8805 4.42142 15.5168 4.61454 15.787 5.11177L16.4232 6.28216C16.6933 6.77938 16.4946 7.39168 16.0076 7.69567C13.5855 9.20767 11.7779 11.5072 10.9215 14.1999C9.96152 17.2182 10.2752 20.4834 11.7935 23.2771C13.3119 26.0707 15.9105 28.164 19.0178 29.0966C21.7898 29.9285 24.7641 29.7757 27.4156 28.6858C27.9487 28.4668 28.5813 28.6526 28.8516 29.1498L29.4877 30.3202Z" fill="#2A84EE"/>
    </svg>
    